# xmcd CD database file
#
# Track frame offsets:
#	150
#	14325
#	28992
#	52925
#	69927
#	89175
#	103247
#	128537
#	146847
#	177342
#	193700
#	212767
#
# Disc length: 3153 seconds
#
# Revision: 2
# Processed by: cddbd v1.5.2PL0 Copyright (c) Steve Scherf et al.
# Submitted via: CDex 1.51
#
DISCID=b10c4f0c
DTITLE=James Cotton - Mighty Long Time
DYEAR=1991
DGENRE=Blues
TTITLE0=Straighten Up Baby
TTITLE1=Everything Gonna Be Alright
TTITLE2=Black Nights
TTITLE3=Blow Wind Blow
TTITLE4=Sugar Sweet
TTITLE5=Moanin' at Midnight
TTITLE6=Baby Please
TTITLE7=Hold Me in Your Arms
TTITLE8=Call It Stormy Monday
TTITLE9=Three Hundred Pounds of Joy
TTITLE10=Northside Cadillac
TTITLE11=Mighty Long Time
EXTD=YEAR: 1991
EXTT0=
EXTT1=
EXTT2=
EXTT3=
EXTT4=
EXTT5=
EXTT6=
EXTT7=
EXTT8=
EXTT9=
EXTT10=
EXTT11=
PLAYORDER=
